<svg width="65" height="65" viewBox="0 0 65 65" fill="none" xmlns="http://www.w3.org/2000/svg">
<g clip-path="url(#clip0)">
<path d="M26.8149 53.1701V51.7289C26.8149 50.8512 26.1008 50.1376 25.2235 50.1376H8.89217V19.345H16.5937C16.6368 19.345 16.679 19.341 16.7201 19.3356L24.9051 24.1295V30.6026H15.9346C15.0063 30.6026 14.2505 31.3584 14.2505 32.2873V37.168C14.2505 38.0968 15.0063 38.8526 15.9346 38.8526H24.9051V40.1127H15.9346C15.0063 40.1127 14.2505 40.8685 14.2505 41.7973V46.6781C14.2505 47.6069 15.0063 48.3627 15.9346 48.3627H18.073C18.6001 48.3627 19.0276 47.9352 19.0276 47.4081C19.0276 46.8804 18.6001 46.4529 18.073 46.4529H16.1602V42.023H35.5598V46.4529H23.9931C23.4655 46.4529 23.038 46.8804 23.038 47.4081C23.038 47.9352 23.466 48.3627 23.9931 48.3627H35.7849C36.7138 48.3627 37.4695 47.6069 37.4695 46.6781V41.7973C37.4695 40.8685 36.7138 40.1127 35.7849 40.1127H26.8149V38.8526H35.7849C36.7138 38.8526 37.4695 38.0968 37.4695 37.168V32.2873C37.4695 31.3584 36.7138 30.6026 35.7849 30.6026H26.8149V23.9867L34.5883 19.4337C34.9572 19.2175 35.1863 18.8173 35.1863 18.3899C35.1863 17.9624 34.9572 17.5627 34.5883 17.3465L26.8149 12.7935V9.34742H28.9195C29.4472 9.34742 29.8746 8.91994 29.8746 8.3923C29.8746 7.86514 29.4472 7.43767 28.9195 7.43767H14.3159V1.90975H37.4041V7.43717H34.8928C34.3651 7.43717 33.9376 7.86465 33.9376 8.3923C33.9376 8.91945 34.3651 9.34692 34.8928 9.34692H37.4522C38.4787 9.34692 39.3138 8.51231 39.3138 7.48577V1.86165C39.3138 0.835114 38.4787 0 37.4522 0H14.2678C13.2413 0 12.4062 0.835114 12.4062 1.86165V7.48577C12.4062 8.51231 13.2413 9.34742 14.2678 9.34742H24.9051V12.6502L16.7201 17.4442C16.679 17.4387 16.6368 17.4352 16.5937 17.4352H8.5738C7.69653 17.4352 6.98242 18.1488 6.98242 19.0266V50.4559C6.98242 51.3332 7.69653 52.0473 8.5738 52.0473H24.9051V53.1701C22.075 53.6283 19.9063 56.0885 19.9063 59.0461C19.9063 62.329 22.5773 65 25.8603 65C29.1432 65 31.8137 62.329 31.8137 59.0461C31.8137 56.0885 29.6455 53.6283 26.8149 53.1701ZM35.5598 32.5124V36.9429H16.1602V32.5124H35.5598ZM25.7378 14.376L32.5912 18.3899L25.7378 22.4038L18.8848 18.3899L25.7378 14.376ZM25.8603 63.0902C23.6301 63.0902 21.8161 61.2762 21.8161 59.0461C21.8161 56.8165 23.6301 55.0024 25.8603 55.0024C28.0899 55.0024 29.9039 56.8165 29.9039 59.0461C29.9039 61.2762 28.0899 63.0902 25.8603 63.0902Z" fill="#371274"/>
<path d="M37.9481 22.5356H35.529C34.6513 22.5356 33.9377 23.2498 33.9377 24.127V26.4191C33.9377 27.2964 34.6513 28.0105 35.529 28.0105H37.9481C38.8258 28.0105 39.5395 27.2964 39.5395 26.4191V24.127C39.5395 23.2498 38.8258 22.5356 37.9481 22.5356ZM37.6297 26.1007H35.8474V24.4454H37.6297V26.1007Z" fill="#371274"/>
<path d="M41.895 29.0291H46.3086C46.8363 29.0291 47.2638 28.6017 47.2638 28.074C47.2638 27.5469 46.8358 27.1194 46.3086 27.1194H41.895C41.3674 27.1194 40.9404 27.5469 40.9404 28.074C40.9404 28.6017 41.3674 29.0291 41.895 29.0291Z" fill="#371274"/>
<path d="M57.1735 27.1194H48.7148C48.1871 27.1194 47.7597 27.5469 47.7597 28.074C47.7597 28.6017 48.1871 29.0291 48.7148 29.0291H57.1735C57.7007 29.0291 58.1282 28.6017 58.1282 28.074C58.1282 27.5469 57.7007 27.1194 57.1735 27.1194Z" fill="#371274"/>
<path d="M41.895 25.8835H43.775C44.3027 25.8835 44.7301 25.456 44.7301 24.9289C44.7301 24.4012 44.3027 23.9738 43.775 23.9738H41.895C41.3674 23.9738 40.9404 24.4012 40.9404 24.9289C40.9404 25.456 41.3674 25.8835 41.895 25.8835Z" fill="#371274"/>
<path d="M54.0776 25.8835H57.0863C57.6134 25.8835 58.0409 25.456 58.0409 24.9289C58.0409 24.4012 57.6134 23.9738 57.0863 23.9738H54.0776C53.5499 23.9738 53.1224 24.4012 53.1224 24.9289C53.1224 25.456 53.5499 25.8835 54.0776 25.8835Z" fill="#371274"/>
<path d="M46.0741 25.8835H51.6977C52.2254 25.8835 52.6528 25.456 52.6528 24.9289C52.6528 24.4012 52.2254 23.9738 51.6977 23.9738H46.0741C45.5464 23.9738 45.119 24.4012 45.119 24.9289C45.119 25.456 45.5469 25.8835 46.0741 25.8835Z" fill="#371274"/>
<path d="M37.9481 54.1902H35.529C34.6513 54.1902 33.9377 54.9043 33.9377 55.7816V58.0737C33.9377 58.9509 34.6513 59.665 35.529 59.665H37.9481C38.8258 59.665 39.5395 58.9509 39.5395 58.0737V55.7816C39.5395 54.9043 38.8258 54.1902 37.9481 54.1902ZM37.6297 57.7553H35.8474V56.0999H37.6297V57.7553Z" fill="#371274"/>
<path d="M46.3086 58.7738H41.895C41.3674 58.7738 40.9404 59.2013 40.9404 59.7284C40.9404 60.2561 41.3674 60.6836 41.895 60.6836H46.3086C46.8363 60.6836 47.2638 60.2561 47.2638 59.7284C47.2638 59.2013 46.8363 58.7738 46.3086 58.7738Z" fill="#371274"/>
<path d="M57.1735 58.7738H48.7148C48.1871 58.7738 47.7597 59.2013 47.7597 59.7284C47.7597 60.2561 48.1871 60.6836 48.7148 60.6836H57.1735C57.7007 60.6836 58.1282 60.2561 58.1282 59.7284C58.1282 59.2013 57.7007 58.7738 57.1735 58.7738Z" fill="#371274"/>
<path d="M41.895 57.538H43.775C44.3027 57.538 44.7301 57.1106 44.7301 56.5834C44.7301 56.0558 44.3027 55.6283 43.775 55.6283H41.895C41.3674 55.6283 40.9404 56.0558 40.9404 56.5834C40.9404 57.1106 41.3674 57.538 41.895 57.538Z" fill="#371274"/>
<path d="M57.0863 55.6283H54.0776C53.5499 55.6283 53.1224 56.0558 53.1224 56.5834C53.1224 57.1106 53.5499 57.538 54.0776 57.538H57.0863C57.6134 57.538 58.0409 57.1106 58.0409 56.5834C58.0409 56.0558 57.6134 55.6283 57.0863 55.6283Z" fill="#371274"/>
<path d="M46.0741 55.6283C45.5464 55.6283 45.119 56.0558 45.119 56.5834C45.119 57.1106 45.5464 57.538 46.0741 57.538H51.6977C52.2254 57.538 52.6528 57.1106 52.6528 56.5834C52.6528 56.0558 52.2254 55.6283 51.6977 55.6283H46.0741Z" fill="#371274"/>
</g>
<defs>
<clipPath id="clip0">
<rect width="65" height="65" fill="white"/>
</clipPath>
</defs>
</svg>
