<svg width="73" height="66" viewBox="0 0 73 66" fill="none" xmlns="http://www.w3.org/2000/svg">
<g filter="url(#filter0_d)">
<path d="M68.0479 43.7247C68.5737 43.7247 69 43.2984 69 42.7726V9.90405C69 8.67908 68.0033 7.68237 66.7783 7.68237H28.1095C27.5837 7.68237 27.1574 8.10868 27.1574 8.63452C27.1574 9.16036 27.5837 9.58667 28.1095 9.58667H66.7783C66.9533 9.58667 67.0957 9.72911 67.0957 9.90405V15.6838H5.9043V9.90405C5.9043 9.72911 6.04674 9.58667 6.22168 9.58667H23.7269C24.2527 9.58667 24.679 9.16036 24.679 8.63452C24.679 8.10868 24.2527 7.68237 23.7269 7.68237H6.22168C4.99671 7.68237 4 8.67908 4 9.90405V55.0959C4 56.3209 4.99671 57.3176 6.22168 57.3176H66.7783C68.0033 57.3176 69 56.3209 69 55.0959V47.1554C69 46.6296 68.5737 46.2033 68.0479 46.2033C67.522 46.2033 67.0957 46.6296 67.0957 47.1554V55.0958C67.0957 55.2707 66.9533 55.4132 66.7783 55.4132H6.22168C6.04674 55.4132 5.9043 55.2707 5.9043 55.0958V17.5881H67.0957V42.7726C67.0957 43.2984 67.522 43.7247 68.0479 43.7247Z" fill="#371274"/>
<path d="M10.0218 11.683C9.49595 11.683 9.06964 12.1093 9.06964 12.6351C9.06964 13.161 9.49595 13.5873 10.0218 13.5873H10.0361C10.562 13.5873 10.9883 13.161 10.9883 12.6351C10.9883 12.1093 10.562 11.683 10.0361 11.683H10.0218Z" fill="#371274"/>
<path d="M12.8964 11.683C12.3705 11.683 11.9442 12.1093 11.9442 12.6351C11.9442 13.161 12.3705 13.5873 12.8964 13.5873H12.9107C13.4365 13.5873 13.8629 13.161 13.8629 12.6351C13.8629 12.1093 13.4365 11.683 12.9107 11.683H12.8964Z" fill="#371274"/>
<path d="M15.771 11.683C15.2452 11.683 14.8188 12.1093 14.8188 12.6351C14.8188 13.161 15.2452 13.5873 15.771 13.5873H15.7853C16.3112 13.5873 16.7375 13.161 16.7375 12.6351C16.7375 12.1093 16.3112 11.683 15.7853 11.683H15.771Z" fill="#371274"/>
<path d="M62.9782 13.5873C63.5041 13.5873 63.9304 13.161 63.9304 12.6351C63.9304 12.1093 63.5041 11.683 62.9782 11.683H61.2065C60.6806 11.683 60.2543 12.1093 60.2543 12.6351C60.2543 13.161 60.6806 13.5873 61.2065 13.5873H62.9782Z" fill="#371274"/>
<path d="M57.6891 38.2323V36.0348C57.6891 34.5167 56.454 33.2816 54.9359 33.2816H18.064C16.5459 33.2816 15.3108 34.5167 15.3108 36.0348V38.2323C15.3108 39.7504 16.5459 40.9854 18.064 40.9854H33.6287C34.1546 40.9854 34.5809 40.5591 34.5809 40.0332C34.5809 39.5074 34.1546 39.0811 33.6287 39.0811H18.064C17.5959 39.0811 17.2151 38.7002 17.2151 38.2323V36.0348C17.2151 35.5668 17.5959 35.1859 18.064 35.1859H49.6397V39.081H38.0114C37.4856 39.081 37.0593 39.5073 37.0593 40.0331C37.0593 40.559 37.4856 40.9853 38.0114 40.9853H54.9359C56.4541 40.9854 57.6891 39.7504 57.6891 38.2323ZM51.544 35.186H54.936C55.4041 35.186 55.785 35.5669 55.785 36.035V38.2324C55.785 38.7005 55.4041 39.0812 54.936 39.0812H51.544V35.186Z" fill="#371274"/>
<path d="M32.5383 47.9247C34.0564 47.9247 35.2916 46.6895 35.2916 45.1714C35.2916 43.6533 34.0564 42.4183 32.5383 42.4183H25.3543C23.8362 42.4183 22.6011 43.6535 22.6011 45.1714C22.6011 46.6895 23.8362 47.9247 25.3543 47.9247H32.5383ZM24.5055 45.1714C24.5055 44.7034 24.8864 44.3226 25.3544 44.3226H32.5385C33.0065 44.3226 33.3874 44.7035 33.3874 45.1714C33.3874 45.6395 33.0065 46.0204 32.5385 46.0204H25.3544C24.8862 46.0204 24.5055 45.6395 24.5055 45.1714Z" fill="#371274"/>
<path d="M40.4617 42.4183C38.9436 42.4183 37.7084 43.6535 37.7084 45.1714C37.7084 46.6895 38.9436 47.9247 40.4617 47.9247H47.6457C49.1638 47.9247 50.3989 46.6895 50.3989 45.1714C50.3989 43.6533 49.1638 42.4183 47.6457 42.4183H40.4617ZM48.4945 45.1714C48.4945 45.6395 48.1136 46.0204 47.6456 46.0204H40.4615C39.9935 46.0204 39.6126 45.6395 39.6126 45.1714C39.6126 44.7034 39.9935 44.3226 40.4615 44.3226H47.6456C48.1138 44.3226 48.4945 44.7035 48.4945 45.1714Z" fill="#371274"/>
<path d="M27.7798 23.8085C28.0541 23.8085 28.3242 23.8492 28.5825 23.9296C29.0845 24.0856 29.6183 23.8054 29.7746 23.3032C29.9308 22.8011 29.6503 22.2674 29.1482 22.1111C28.7066 21.9737 28.2462 21.9041 27.7798 21.9041C25.242 21.9041 23.1774 23.9687 23.1774 26.5065C23.1774 29.0443 25.242 31.1089 27.7798 31.1089C30.3176 31.1089 32.3824 29.0443 32.3824 26.5065C32.3824 25.9806 31.956 25.5543 31.4302 25.5543H27.7798C27.254 25.5543 26.8277 25.9806 26.8277 26.5065C26.8277 27.0323 27.254 27.4586 27.7798 27.4586H30.3046C29.919 28.4779 28.9327 29.2046 27.7798 29.2046C26.292 29.2046 25.0817 27.9942 25.0817 26.5065C25.0817 25.0187 26.292 23.8085 27.7798 23.8085Z" fill="#371274"/>
<path d="M32.6127 28.8172C32.6127 30.1515 33.6981 31.2369 35.0324 31.2369C36.3667 31.2369 37.4521 30.1515 37.4521 28.8172C37.4521 27.4829 36.3667 26.3975 35.0324 26.3975C33.6981 26.3975 32.6127 27.4829 32.6127 28.8172ZM35.5478 28.8172C35.5478 29.1014 35.3166 29.3326 35.0324 29.3326C34.7481 29.3326 34.517 29.1014 34.517 28.8172C34.517 28.5329 34.7481 28.3018 35.0324 28.3018C35.3166 28.3018 35.5478 28.5329 35.5478 28.8172Z" fill="#371274"/>
<path d="M37.8355 28.8172C37.8355 30.1515 38.921 31.2369 40.2552 31.2369C41.5895 31.2369 42.675 30.1515 42.675 28.8172C42.675 27.4829 41.5895 26.3975 40.2552 26.3975C38.921 26.3975 37.8355 27.4829 37.8355 28.8172ZM40.7707 28.8172C40.7707 29.1014 40.5395 29.3326 40.2552 29.3326C39.971 29.3326 39.7398 29.1014 39.7398 28.8172C39.7398 28.5329 39.971 28.3018 40.2552 28.3018C40.5395 28.3018 40.7707 28.5329 40.7707 28.8172Z" fill="#371274"/>
<path d="M45.478 26.3975C44.1437 26.3975 43.0583 27.4829 43.0583 28.8172C43.0583 30.1515 44.1437 31.2369 45.478 31.2369C46.8123 31.2369 47.8977 30.1515 47.8977 28.8172C47.8977 27.4829 46.8123 26.3975 45.478 26.3975ZM45.478 29.3326C45.1938 29.3326 44.9626 29.1014 44.9626 28.8172C44.9626 28.5329 45.1938 28.3018 45.478 28.3018C45.7623 28.3018 45.9934 28.5329 45.9934 28.8172C45.9934 29.1014 45.7623 29.3326 45.478 29.3326Z" fill="#371274"/>
<path d="M31.9907 23.8768C31.9907 24.4026 32.417 24.8289 32.9429 24.8289H45.1053C45.0863 25.0949 45.1776 25.3673 45.381 25.5707C45.5668 25.7566 45.8106 25.8496 46.0542 25.8496C46.2978 25.8496 46.5416 25.7567 46.7274 25.5707L47.7481 24.55C47.9268 24.3715 48.027 24.1293 48.027 23.8768C48.027 23.6243 47.9268 23.3821 47.7481 23.2036L46.7274 22.183C46.3556 21.811 45.7527 21.8111 45.381 22.183C45.1776 22.3864 45.0863 22.6587 45.1053 22.9246H32.9427C32.417 22.9246 31.9907 23.351 31.9907 23.8768Z" fill="#371274"/>
<path d="M9.9071 51.4795C9.38126 51.4795 8.95496 51.9058 8.95496 52.4316C8.95496 52.9575 9.38126 53.3838 9.9071 53.3838H12.1373C12.6631 53.3838 13.0894 52.9575 13.0894 52.4316C13.0894 51.9058 12.6631 51.4795 12.1373 51.4795H9.9071Z" fill="#371274"/>
<path d="M15.6707 51.4795C15.1448 51.4795 14.7185 51.9058 14.7185 52.4316C14.7185 52.9575 15.1448 53.3838 15.6707 53.3838H17.9008C18.4267 53.3838 18.853 52.9575 18.853 52.4316C18.853 51.9058 18.4267 51.4795 17.9008 51.4795H15.6707Z" fill="#371274"/>
<path d="M21.4342 51.4795C20.9084 51.4795 20.4821 51.9058 20.4821 52.4316C20.4821 52.9575 20.9084 53.3838 21.4342 53.3838H23.6644C24.1902 53.3838 24.6165 52.9575 24.6165 52.4316C24.6165 51.9058 24.1902 51.4795 23.6644 51.4795H21.4342Z" fill="#371274"/>
<path d="M60.8626 51.4795C60.3368 51.4795 59.9105 51.9058 59.9105 52.4316C59.9105 52.9575 60.3368 53.3838 60.8626 53.3838H63.0928C63.6186 53.3838 64.0449 52.9575 64.0449 52.4316C64.0449 51.9058 63.6186 51.4795 63.0928 51.4795H60.8626Z" fill="#371274"/>
</g>
<defs>
<filter id="filter0_d" x="0" y="0" width="73" height="73" filterUnits="userSpaceOnUse" color-interpolation-filters="sRGB">
<feFlood flood-opacity="0" result="BackgroundImageFix"/>
<feColorMatrix in="SourceAlpha" type="matrix" values="0 0 0 0 0 0 0 0 0 0 0 0 0 0 0 0 0 0 127 0" result="hardAlpha"/>
<feOffset dy="4"/>
<feGaussianBlur stdDeviation="2"/>
<feComposite in2="hardAlpha" operator="out"/>
<feColorMatrix type="matrix" values="0 0 0 0 0 0 0 0 0 0 0 0 0 0 0 0 0 0 0.25 0"/>
<feBlend mode="normal" in2="BackgroundImageFix" result="effect1_dropShadow"/>
<feBlend mode="normal" in="SourceGraphic" in2="effect1_dropShadow" result="shape"/>
</filter>
</defs>
</svg>
