<svg width="70" height="70" viewBox="0 0 70 70" fill="#7C3FE0" xmlns="http://www.w3.org/2000/svg">
<path d="M35 0C15.7018 0 0 15.7018 0 35C0 54.2982 15.7018 70 35 70C54.2982 70 70 54.2982 70 35C70 15.7018 54.2982 0 35 0ZM54.5614 25.7895L32.193 47.9825C30.8772 49.2982 28.7719 49.386 27.3684 48.0702L15.5263 37.2807C14.1228 35.9649 14.0351 33.7719 15.2632 32.3684C16.5789 30.9649 18.7719 30.8772 20.1754 32.193L29.5614 40.7895L49.5614 20.7895C50.9649 19.386 53.1579 19.386 54.5614 20.7895C55.9649 22.193 55.9649 24.386 54.5614 25.7895Z" fill="#7C3FE0"/>
</svg>
