<svg width="50" height="50" viewBox="0 0 50 50" fill="none" xmlns="http://www.w3.org/2000/svg">
<path d="M25 0C11.2686 0 0 11.2686 0 25C0 36.7176 8.2222 47.3618 19.1406 50V41.729C18.0588 41.9659 17.0631 41.9727 15.9618 41.6481C14.4844 41.2121 13.2839 40.2279 12.3928 38.7272C11.8248 37.7689 10.8181 36.7298 9.76791 36.8061L9.51042 33.8879C11.7813 33.6933 13.7459 35.2715 14.912 37.2307C15.4301 38.102 16.0263 38.6127 16.7915 38.8386C17.5312 39.0564 18.3254 38.9519 19.2509 38.625C19.4832 36.7722 20.332 36.0786 20.9732 35.1021V35.1006C14.4615 34.1293 11.8664 30.6747 10.8364 27.948C9.47151 24.3275 10.2039 19.8044 12.6175 16.946C12.6644 16.8903 12.7491 16.7446 12.7163 16.6428C11.6096 13.2999 12.9581 10.5347 13.0077 10.2413C14.2849 10.619 14.4924 9.86137 18.5555 12.3299L19.2577 12.7518C19.5515 12.9269 19.4592 12.8269 19.7529 12.8048C21.4493 12.344 23.2376 12.0895 24.9996 12.0667C26.775 12.0895 28.5519 12.344 30.3185 12.8235L30.5458 12.8464C30.526 12.8433 30.6076 12.8319 30.7446 12.7502C35.82 9.67598 35.6377 10.6808 36.9987 10.2383C37.048 10.532 38.3785 13.3423 37.2837 16.6428C37.1361 17.0975 41.684 21.262 39.1632 27.9469C38.1332 30.6747 35.5385 34.1293 29.0268 35.1006V35.1021C29.8615 36.3743 30.8643 37.051 30.859 39.6755V50C41.7778 47.3618 49.9996 36.7176 49.9996 25C50 11.2686 38.7314 0 25 0V0Z" fill="#BF98FF"/>
</svg>
