<svg width="65" height="65" viewBox="0 0 65 65" fill="none" xmlns="http://www.w3.org/2000/svg">
<path d="M3.72736 11.2988C3.72736 12.8739 5.01225 14.1553 6.59155 14.1553C8.17084 14.1553 9.45561 12.8739 9.45561 11.2988C9.45561 9.72372 8.17084 8.44238 6.59155 8.44238C5.01225 8.44238 3.72736 9.72372 3.72736 11.2988ZM7.55131 11.2988C7.55131 11.8239 7.12069 12.251 6.59142 12.251C6.06215 12.251 5.63165 11.8239 5.63165 11.2988C5.63165 10.7738 6.06228 10.3467 6.59155 10.3467C7.12081 10.3467 7.55131 10.7738 7.55131 11.2988Z" fill="#371274"/>
<path d="M17.7409 11.2988C17.7409 9.72372 16.456 8.44238 14.8767 8.44238C13.2974 8.44238 12.0126 9.72372 12.0126 11.2988C12.0126 12.8739 13.2975 14.1553 14.8768 14.1553C16.4561 14.1553 17.7409 12.8739 17.7409 11.2988ZM13.9169 11.2988C13.9169 10.7738 14.3476 10.3467 14.8768 10.3467C15.4061 10.3467 15.8367 10.7738 15.8367 11.2988C15.8367 11.8239 15.4061 12.251 14.8768 12.251C14.3476 12.251 13.9169 11.8239 13.9169 11.2988Z" fill="#371274"/>
<path d="M25.7873 11.2988C25.7873 9.72372 24.5024 8.44238 22.9231 8.44238C21.3439 8.44238 20.059 9.72372 20.059 11.2988C20.059 12.8739 21.3439 14.1553 22.9231 14.1553C24.5024 14.1553 25.7873 12.8739 25.7873 11.2988ZM21.9633 11.2988C21.9633 10.7738 22.3939 10.3467 22.9231 10.3467C23.4524 10.3467 23.883 10.7738 23.883 11.2988C23.883 11.8239 23.4524 12.251 22.9231 12.251C22.3939 12.251 21.9633 11.8239 21.9633 11.2988Z" fill="#371274"/>
<path d="M58.2472 14.1553C59.8263 14.1553 61.1114 12.8739 61.1114 11.2988C61.1114 9.72372 59.8265 8.44238 58.2472 8.44238H31.4792C29.8999 8.44238 28.6151 9.72372 28.6151 11.2988C28.6151 12.8739 29.8999 14.1553 31.4792 14.1553H58.2472ZM30.5193 11.2988C30.5193 10.7738 30.95 10.3467 31.4792 10.3467H58.2472C58.7764 10.3467 59.2071 10.7738 59.2071 11.2988C59.2071 11.8239 58.7764 12.251 58.2472 12.251H31.4792C30.95 12.251 30.5193 11.8239 30.5193 11.2988Z" fill="#371274"/>
<path d="M61.5088 4.31641H11.8066C11.2808 4.31641 10.8545 4.74271 10.8545 5.26855C10.8545 5.79439 11.2808 6.2207 11.8066 6.2207H61.5088C62.3839 6.2207 63.0957 6.93253 63.0957 7.80762V15.9961H1.9043V7.80762C1.9043 6.93253 2.61612 6.2207 3.49121 6.2207H7.36328C7.88912 6.2207 8.31543 5.79439 8.31543 5.26855C8.31543 4.74271 7.88912 4.31641 7.36328 4.31641H3.49121C1.56609 4.31641 0 5.8825 0 7.80762V57.1924C0 59.1175 1.56609 60.6836 3.49121 60.6836H61.5088C63.4339 60.6836 65 59.1175 65 57.1924V51.0352C65 50.5093 64.5738 50.083 64.0479 50.083C63.5219 50.083 63.0957 50.5093 63.0957 51.0352V57.1924C63.0957 58.0675 62.3839 58.7793 61.5088 58.7793H3.49121C2.61612 58.7793 1.9043 58.0675 1.9043 57.1924V17.9004H63.0957V46.5918C63.0957 47.1176 63.5219 47.5439 64.0479 47.5439C64.5738 47.5439 65 47.1176 65 46.5918V7.80762C65 5.8825 63.4338 4.31641 61.5088 4.31641Z" fill="#371274"/>
<path d="M47.417 27.7393H40.1172C39.5912 27.7393 39.165 28.1656 39.165 28.6914C39.165 29.2172 39.5912 29.6436 40.1172 29.6436H47.417C48.642 29.6436 49.6387 28.6468 49.6387 27.4219V22.3438C49.6387 21.1188 48.642 20.1221 47.417 20.1221H17.71C16.485 20.1221 15.4883 21.1188 15.4883 22.3438V27.4219C15.4883 28.6468 16.485 29.6436 17.71 29.6436H35.6738C36.1998 29.6436 36.626 29.2172 36.626 28.6914C36.626 28.1656 36.1998 27.7393 35.6738 27.7393H17.71C17.535 27.7393 17.3926 27.5968 17.3926 27.4219V22.3438C17.3926 22.1688 17.535 22.0264 17.71 22.0264H47.417C47.5921 22.0264 47.7344 22.1688 47.7344 22.3438V27.4219C47.7344 27.5968 47.5921 27.7393 47.417 27.7393Z" fill="#371274"/>
<path d="M32.5 31.8652C29.0349 31.8652 26.2158 34.6844 26.2158 38.1494C26.2158 41.6145 29.0349 44.4336 32.5 44.4336C35.9651 44.4336 38.7842 41.6145 38.7842 38.1494C38.7842 34.6844 35.9651 31.8652 32.5 31.8652ZM32.5 42.5293C30.085 42.5293 28.1201 40.5644 28.1201 38.1494C28.1201 35.7344 30.085 33.7695 32.5 33.7695C34.915 33.7695 36.8799 35.7344 36.8799 38.1494C36.8799 40.5644 34.915 42.5293 32.5 42.5293Z" fill="#371274"/>
<path d="M50.1465 31.8652C46.6814 31.8652 43.8623 34.6844 43.8623 38.1494C43.8623 41.6145 46.6814 44.4336 50.1465 44.4336C53.6115 44.4336 56.4307 41.6145 56.4307 38.1494C56.4307 34.6844 53.6115 31.8652 50.1465 31.8652ZM50.1465 42.5293C47.7315 42.5293 45.7666 40.5644 45.7666 38.1494C45.7666 35.7344 47.7315 33.7695 50.1465 33.7695C52.5615 33.7695 54.5264 35.7344 54.5264 38.1494C54.5264 40.5644 52.5615 42.5293 50.1465 42.5293Z" fill="#371274"/>
<path d="M14.8535 31.8652C11.3885 31.8652 8.56934 34.6844 8.56934 38.1494C8.56934 41.6145 11.3885 44.4336 14.8535 44.4336C15.6839 44.4336 16.4911 44.2739 17.2529 43.959C17.7389 43.7581 17.97 43.2014 17.7691 42.7154C17.5682 42.2293 17.0115 41.9983 16.5255 42.1992C15.9955 42.4182 15.4329 42.5293 14.8535 42.5293C12.4385 42.5293 10.4736 40.5644 10.4736 38.1494C10.4736 35.7344 12.4385 33.7695 14.8535 33.7695C17.2685 33.7695 19.2334 35.7344 19.2334 38.1494C19.2334 38.6125 19.1617 39.0682 19.0202 39.5036C18.8579 40.0038 19.1316 40.5408 19.6318 40.7033C20.1321 40.8658 20.6691 40.5919 20.8315 40.0918C21.0347 39.466 21.1377 38.8125 21.1377 38.1494C21.1377 34.6844 18.3186 31.8652 14.8535 31.8652Z" fill="#371274"/>
<path d="M19.9316 46.3379H11.0449C10.5191 46.3379 10.0928 46.7642 10.0928 47.29C10.0928 47.8159 10.5191 48.2422 11.0449 48.2422H19.9316C20.4575 48.2422 20.8838 47.8159 20.8838 47.29C20.8838 46.7642 20.4575 46.3379 19.9316 46.3379Z" fill="#371274"/>
<path d="M19.9316 50.1465H9.77539C9.24955 50.1465 8.82324 50.5728 8.82324 51.0986C8.82324 51.6245 9.24955 52.0508 9.77539 52.0508H19.9316C20.4575 52.0508 20.8838 51.6245 20.8838 51.0986C20.8838 50.5728 20.4575 50.1465 19.9316 50.1465Z" fill="#371274"/>
<path d="M19.9316 53.9551H9.77539C9.24955 53.9551 8.82324 54.3814 8.82324 54.9072C8.82324 55.4331 9.24955 55.8594 9.77539 55.8594H19.9316C20.4575 55.8594 20.8838 55.4331 20.8838 54.9072C20.8838 54.3814 20.4575 53.9551 19.9316 53.9551Z" fill="#371274"/>
<path d="M37.5781 46.3379H28.6914C28.1656 46.3379 27.7393 46.7642 27.7393 47.29C27.7393 47.8159 28.1656 48.2422 28.6914 48.2422H37.5781C38.1041 48.2422 38.5303 47.8159 38.5303 47.29C38.5303 46.7642 38.1041 46.3379 37.5781 46.3379Z" fill="#371274"/>
<path d="M37.5781 50.1465H27.4219C26.896 50.1465 26.4697 50.5728 26.4697 51.0986C26.4697 51.6245 26.896 52.0508 27.4219 52.0508H37.5781C38.1041 52.0508 38.5303 51.6245 38.5303 51.0986C38.5303 50.5728 38.1041 50.1465 37.5781 50.1465Z" fill="#371274"/>
<path d="M37.5781 53.9551H27.4219C26.896 53.9551 26.4697 54.3814 26.4697 54.9072C26.4697 55.4331 26.896 55.8594 27.4219 55.8594H37.5781C38.1041 55.8594 38.5303 55.4331 38.5303 54.9072C38.5303 54.3814 38.1041 53.9551 37.5781 53.9551Z" fill="#371274"/>
<path d="M55.2246 46.3379H46.3379C45.8119 46.3379 45.3857 46.7642 45.3857 47.29C45.3857 47.8159 45.8119 48.2422 46.3379 48.2422H55.2246C55.7506 48.2422 56.1768 47.8159 56.1768 47.29C56.1768 46.7642 55.7506 46.3379 55.2246 46.3379Z" fill="#371274"/>
<path d="M55.2246 50.1465H45.0684C44.5424 50.1465 44.1162 50.5728 44.1162 51.0986C44.1162 51.6245 44.5424 52.0508 45.0684 52.0508H55.2246C55.7506 52.0508 56.1768 51.6245 56.1768 51.0986C56.1768 50.5728 55.7506 50.1465 55.2246 50.1465Z" fill="#371274"/>
<path d="M55.2246 53.9551H45.0684C44.5424 53.9551 44.1162 54.3814 44.1162 54.9072C44.1162 55.4331 44.5424 55.8594 45.0684 55.8594H55.2246C55.7506 55.8594 56.1768 55.4331 56.1768 54.9072C56.1768 54.3814 55.7506 53.9551 55.2246 53.9551Z" fill="#371274"/>
</svg>
