<svg width="65" height="65" viewBox="0 0 65 65" fill="none" xmlns="http://www.w3.org/2000/svg">
<path d="M25.6457 45.551C25.4002 45.551 25.1529 45.4666 24.9511 45.2947L18.007 39.3818C17.7674 39.1776 17.6297 38.8794 17.6297 38.5644C17.6297 38.25 17.768 37.9518 18.007 37.7476L24.9511 31.8347C25.402 31.4502 26.0793 31.5047 26.4637 31.9556C26.8476 32.4071 26.7937 33.0844 26.3422 33.4683L20.358 38.5644L26.3422 43.6605C26.7937 44.0449 26.8476 44.7222 26.4637 45.1731C26.2511 45.4228 25.9493 45.551 25.6457 45.551Z" fill="#371274"/>
<path d="M39.3543 45.551C39.0507 45.551 38.7489 45.4228 38.5369 45.1731C38.1524 44.7222 38.2069 44.0449 38.6578 43.6605L44.642 38.5644L38.6578 33.4683C38.2069 33.0844 38.1524 32.4071 38.5369 31.9556C38.9207 31.5047 39.5986 31.4502 40.0489 31.8347L46.993 37.7476C47.2326 37.9518 47.3703 38.25 47.3703 38.5644C47.3703 38.8794 47.2326 39.1776 46.993 39.3818L40.0489 45.2947C39.8471 45.4666 39.5998 45.551 39.3543 45.551Z" fill="#371274"/>
<path d="M30.0418 49.986C29.9681 49.986 29.8939 49.9782 29.819 49.9626C29.2394 49.8405 28.8681 49.271 28.9902 48.6913L33.318 28.1435C33.4402 27.5638 34.0091 27.1925 34.5893 27.3147C35.169 27.4369 35.5403 28.0058 35.4181 28.586L31.0904 49.1339C30.9838 49.6393 30.5382 49.986 30.0418 49.986Z" fill="#371274"/>
<path d="M57.7948 61.1806H7.20519C3.23251 61.1806 0 57.9487 0 53.9754V11.0377C0 7.06503 3.23251 3.83252 7.20519 3.83252H57.7948C61.7675 3.83252 65 7.06503 65 11.0377V53.9754C65 57.9487 61.7675 61.1806 57.7948 61.1806ZM7.20519 5.97875C4.41581 5.97875 2.14623 8.24833 2.14623 11.0377V53.9754C2.14623 56.7648 4.41581 59.0344 7.20519 59.0344H57.7948C60.5842 59.0344 62.8538 56.7648 62.8538 53.9754V11.0377C62.8538 8.24833 60.5842 5.97875 57.7948 5.97875H7.20519Z" fill="#371274"/>
<path d="M63.9269 21.0162H1.07311C0.480266 21.0162 0 20.5359 0 19.943C0 19.3508 0.480266 18.8699 1.07311 18.8699H63.9269C64.5197 18.8699 65 19.3508 65 19.943C65 20.5359 64.5197 21.0162 63.9269 21.0162Z" fill="#371274"/>
<path d="M18.3351 15.8811C16.4632 15.8811 14.9391 14.3571 14.9391 12.4851C14.9391 10.6125 16.4632 9.08911 18.3351 9.08911C20.2077 9.08911 21.7311 10.6125 21.7311 12.4851C21.7311 14.3571 20.2077 15.8811 18.3351 15.8811ZM18.3351 11.2353C17.6465 11.2353 17.0854 11.7958 17.0854 12.4851C17.0854 13.1744 17.6465 13.7349 18.3351 13.7349C19.0244 13.7349 19.5849 13.1744 19.5849 12.4851C19.5849 11.7958 19.0244 11.2353 18.3351 11.2353Z" fill="#371274"/>
<path d="M7.90103 15.8482C6.02847 15.8482 4.50504 14.3248 4.50504 12.4522C4.50504 10.5797 6.02847 9.05621 7.90103 9.05621C9.77359 9.05621 11.297 10.5797 11.297 12.4522C11.297 14.3248 9.77359 15.8482 7.90103 15.8482ZM7.90103 11.2024C7.21237 11.2024 6.65126 11.7635 6.65126 12.4522C6.65126 13.1415 7.21237 13.702 7.90103 13.702C8.59029 13.702 9.1508 13.1415 9.1508 12.4522C9.1508 11.7635 8.59029 11.2024 7.90103 11.2024Z" fill="#371274"/>
<path d="M28.7693 15.9135C26.8973 15.9135 25.3739 14.39 25.3739 12.5175C25.3739 10.6455 26.8973 9.12207 28.7693 9.12207C30.6418 9.12207 32.1653 10.6455 32.1653 12.5175C32.1653 14.39 30.6418 15.9135 28.7693 15.9135ZM28.7693 11.2677C28.0806 11.2677 27.5201 11.8282 27.5201 12.5175C27.5201 13.2067 28.0806 13.7672 28.7693 13.7672C29.4585 13.7672 30.019 13.2067 30.019 12.5175C30.019 11.8282 29.4585 11.2677 28.7693 11.2677Z" fill="#371274"/>
</svg>
